<?xml version="1.0" encoding="UTF-8"?>
<svg id="Layer_1" xmlns="http://www.w3.org/2000/svg" version="1.1" viewBox="0 0 160 150.19">
  <!-- Generator: Adobe Illustrator 30.3.0, SVG Export Plug-In . SVG Version: 2.1.3 Build 182)  -->
  <defs>
    <style>
      .st0 {
        fill: #C9A24B;
      }
    </style>
  </defs>
  <path class="st0" d="M83.46,87.84c-1.15-.62-2.52-.94-4.1-.94h-9.43v14.76h9.43c1.58,0,2.95-.31,4.1-.94,1.15-.62,2.05-1.49,2.7-2.59.65-1.1.97-2.38.97-3.82s-.32-2.78-.97-3.89c-.65-1.1-1.55-1.97-2.7-2.59h0Z"/>
  <path class="st0" d="M130.07,72.91c0-4.65-2.82-8.61-6.99-10.14-1.03-.36-1.91-.76-3.12-.76H55.17l.08-23.07c.42-10.14,6.63-19.13,16.11-22.77,7.64-2.93,15.98-1.88,22.86,2.89,6.04,4.17,10.23,11.35,10.56,19.26l.04,1.2c0,1.22.91,2.07,2.13,2.07h6.17c1.22,0,2.12-.89,2.11-2.12v-.56c-.03-8.78-3.38-16.92-9.3-23.35-9.39-10.2-23.99-14.17-37.15-9.41-14.02,5.08-23.57,18.48-23.97,33.37l-.02,22.45h-2.87c-6.52-.03-12.04,4.32-12.04,11.03v62.5c0,1.35.3,2.39.75,3.55,1.6,4.11,5.42,6.97,10.09,6.97h78.34c6.41,0,11.05-5.01,11.05-11.31l-.04-61.8ZM88.71,130.82l-10.87-19.44h-7.92v19.44h-11.16v-53.64h20.52c3.7,0,6.97.65,9.83,1.94,2.86,1.3,5.1,3.22,6.73,5.76,1.63,2.54,2.45,5.69,2.45,9.43s-.84,6.76-2.52,9.32c-1.68,2.57-3.94,4.5-6.77,5.8l12.24,21.38h-12.53Z"/>
</svg>