<?xml version="1.0" encoding="UTF-8"?>
<svg id="Layer_1" xmlns="http://www.w3.org/2000/svg" version="1.1" viewBox="0 0 513 120">
  <!-- Generator: Adobe Illustrator 30.3.0, SVG Export Plug-In . SVG Version: 2.1.3 Build 182)  -->
  <defs>
    <style>
      .st0 {
        fill: #0b5f58;
      }
    </style>
  </defs>
  <g>
    <path class="st0" d="M51.11,69.35c-.85-.46-1.85-.69-3.01-.69h-6.92v10.83h6.92c1.16,0,2.17-.23,3.01-.69s1.51-1.09,1.98-1.9c.48-.81.71-1.74.71-2.8s-.24-2.04-.71-2.85c-.48-.81-1.14-1.44-1.98-1.9Z"/>
    <path class="st0" d="M85.31,58.4c0-3.41-2.07-6.32-5.13-7.44-.76-.26-1.4-.56-2.29-.55H30.36l.06-16.93c.31-7.44,4.86-14.04,11.82-16.7,5.6-2.15,11.72-1.38,16.77,2.12,4.43,3.06,7.51,8.32,7.75,14.13l.03.88c0,.9.67,1.52,1.56,1.52h4.52c.9,0,1.55-.65,1.55-1.55v-.41c-.02-6.44-2.48-12.42-6.82-17.13-6.89-7.49-17.6-10.4-27.26-6.9-10.29,3.73-17.29,13.56-17.59,24.49l-.02,16.47h-2.1c-4.79-.02-8.83,3.17-8.83,8.09v45.86c0,.99.22,1.75.55,2.6,1.17,3.02,3.98,5.12,7.4,5.12h57.48c4.7,0,8.11-3.67,8.11-8.3l-.03-45.34v-.03ZM54.97,100.89l-7.98-14.26h-5.81v14.26h-8.19v-39.36h15.06c2.71,0,5.12.48,7.21,1.43,2.1.95,3.74,2.36,4.94,4.23,1.2,1.87,1.8,4.17,1.8,6.92s-.62,4.96-1.85,6.84-2.89,3.3-4.97,4.25l8.98,15.69h-9.19Z"/>
  </g>
  <g>
    <path class="st0" d="M103.76,110.61V21.21h34.2c6.16,0,11.62,1.08,16.38,3.24,4.76,2.16,8.5,5.36,11.22,9.6,2.72,4.24,4.08,9.48,4.08,15.72s-1.4,11.26-4.2,15.54-6.56,7.5-11.28,9.66l20.4,35.64h-20.88l-22.08-39.48,12,7.08h-21.24v32.4s-18.6,0-18.6,0ZM122.36,62.01h15.72c2.64,0,4.92-.52,6.84-1.56s3.42-2.48,4.5-4.32,1.62-3.96,1.62-6.36-.54-4.64-1.62-6.48-2.58-3.28-4.5-4.32-4.2-1.56-6.84-1.56h-15.72v24.6Z"/>
    <path class="st0" d="M210.44,112.05c-6.96,0-13-1.54-18.12-4.62s-9.08-7.22-11.88-12.42-4.2-10.96-4.2-17.28,1.46-12.4,4.38-17.52,6.86-9.16,11.82-12.12c4.96-2.96,10.56-4.44,16.8-4.44,5.2,0,9.8.82,13.8,2.46s7.38,3.94,10.14,6.9c2.76,2.96,4.86,6.38,6.3,10.26s2.16,8.1,2.16,12.66c0,1.28-.06,2.54-.18,3.78s-.34,2.3-.66,3.18h-49.08v-13.2h38.88l-8.52,6.24c.8-3.44.76-6.5-.12-9.18-.88-2.68-2.42-4.8-4.62-6.36s-4.9-2.34-8.1-2.34-5.8.76-8.04,2.28c-2.24,1.52-3.92,3.76-5.04,6.72s-1.56,6.56-1.32,10.8c-.32,3.68.12,6.92,1.32,9.72,1.2,2.8,3.04,4.98,5.52,6.54,2.48,1.56,5.48,2.34,9,2.34,3.2,0,5.94-.64,8.22-1.92s4.06-3.04,5.34-5.28l14.4,6.84c-1.28,3.2-3.3,6-6.06,8.4s-6.02,4.26-9.78,5.58-7.88,1.98-12.36,1.98h0Z"/>
    <path class="st0" d="M277.87,112.05c-7.2,0-13.46-1.7-18.78-5.1s-8.94-7.98-10.86-13.74l13.2-6.24c1.68,3.52,3.96,6.28,6.84,8.28s6.08,3,9.6,3c2.56,0,4.52-.52,5.88-1.56,1.36-1.04,2.04-2.48,2.04-4.32,0-.96-.24-1.78-.72-2.46s-1.2-1.3-2.16-1.86-2.16-1.04-3.6-1.44l-11.16-3.12c-5.36-1.52-9.48-3.98-12.36-7.38-2.88-3.4-4.32-7.42-4.32-12.06,0-4.08,1.04-7.64,3.12-10.68s5-5.42,8.76-7.14,8.08-2.58,12.96-2.58c6.4,0,12.02,1.5,16.86,4.5,4.84,3,8.26,7.22,10.26,12.66l-13.32,6.24c-.96-2.72-2.7-4.9-5.22-6.54s-5.38-2.46-8.58-2.46c-2.32,0-4.14.48-5.46,1.44-1.32.96-1.98,2.28-1.98,3.96,0,.88.24,1.68.72,2.4s1.26,1.36,2.34,1.92,2.42,1.08,4.02,1.56l10.44,3.12c5.44,1.6,9.6,4.02,12.48,7.26s4.32,7.22,4.32,11.94c0,4.08-1.06,7.64-3.18,10.68s-5.06,5.42-8.82,7.14-8.2,2.58-13.32,2.58Z"/>
    <path class="st0" d="M345.55,112.05c-6.96,0-13-1.54-18.12-4.62s-9.08-7.22-11.88-12.42c-2.8-5.2-4.2-10.96-4.2-17.28s1.46-12.4,4.38-17.52,6.86-9.16,11.82-12.12c4.96-2.96,10.56-4.44,16.8-4.44,5.2,0,9.8.82,13.8,2.46s7.38,3.94,10.14,6.9c2.76,2.96,4.86,6.38,6.3,10.26s2.16,8.1,2.16,12.66c0,1.28-.06,2.54-.18,3.78s-.34,2.3-.66,3.18h-49.08v-13.2h38.88l-8.52,6.24c.8-3.44.76-6.5-.12-9.18s-2.42-4.8-4.62-6.36c-2.2-1.56-4.9-2.34-8.1-2.34s-5.8.76-8.04,2.28c-2.24,1.52-3.92,3.76-5.04,6.72s-1.56,6.56-1.32,10.8c-.32,3.68.12,6.92,1.32,9.72s3.04,4.98,5.52,6.54c2.48,1.56,5.48,2.34,9,2.34,3.2,0,5.94-.64,8.22-1.92s4.06-3.04,5.34-5.28l14.4,6.84c-1.28,3.2-3.3,6-6.06,8.4s-6.02,4.26-9.78,5.58-7.88,1.98-12.36,1.98h0Z"/>
    <path class="st0" d="M387.31,110.61V45.09h16.8v15.72l-1.2-2.28c1.44-5.52,3.82-9.26,7.14-11.22,3.32-1.96,7.26-2.94,11.82-2.94h3.84v15.6h-5.64c-4.4,0-7.96,1.34-10.68,4.02-2.72,2.68-4.08,6.46-4.08,11.34v35.28h-18Z"/>
    <path class="st0" d="M466.15,112.05c-6.48,0-12.38-1.48-17.7-4.44s-9.56-7.02-12.72-12.18c-3.16-5.16-4.74-11.02-4.74-17.58s1.58-12.52,4.74-17.64c3.16-5.12,7.4-9.16,12.72-12.12s11.22-4.44,17.7-4.44,12.36,1.48,17.64,4.44,9.5,7,12.66,12.12c3.16,5.12,4.74,11,4.74,17.64s-1.58,12.42-4.74,17.58c-3.16,5.16-7.38,9.22-12.66,12.18s-11.16,4.44-17.64,4.44h0ZM466.15,95.85c3.28,0,6.14-.76,8.58-2.28,2.44-1.52,4.36-3.64,5.76-6.36,1.4-2.72,2.1-5.84,2.1-9.36s-.7-6.62-2.1-9.3-3.32-4.8-5.76-6.36-5.3-2.34-8.58-2.34-6.16.78-8.64,2.34-4.42,3.68-5.82,6.36-2.1,5.78-2.1,9.3.7,6.64,2.1,9.36,3.34,4.84,5.82,6.36,5.36,2.28,8.64,2.28Z"/>
  </g>
</svg>